<svg width="1211" height="277" viewBox="0 0 1211 277" fill="none" xmlns="http://www.w3.org/2000/svg">
<g clip-path="url(#clip0_2232_24)">
<path d="M64.9867 -0.986654C105 -0.986654 145 -1 185 -1C191.173 -0.88 197.347 0.680002 201.973 4.96C221.04 23.2133 239.04 42.6 257.893 61.0933C263.373 66.3467 264.96 73.2933 265.307 80.6267C265.28 133.96 265.333 187.293 265.293 240.627C265.213 246.133 265.72 251.173 264.48 256.6C262.32 267.68 250.987 276.733 239.667 276.067C181 275.973 122.32 276.013 63.64 276.013C54.8667 276.467 46.2134 271.333 41.7867 263.867C38.8934 259.347 38.1334 253.893 38.0134 248.627C38.0534 235.733 38.0134 222.853 38.0134 209.96C38.0534 206.093 38.44 202.413 41.6534 199.853C48.3734 194.067 58.84 199.88 57.72 208.587C57.7067 221.947 57.6534 235.307 57.72 248.667C57.4534 253 60.5734 256.28 64.96 255.987C122.667 255.92 180.693 256.067 238.4 255.907C241.573 256.053 244.12 254.213 245.44 251.413C245.933 247.88 245.707 244.2 245.72 240.627C245.693 187.787 245.747 134.893 245.693 82.0533C245.947 76.6267 242.293 74.2267 238.893 70.7333C223.133 54.4933 207.12 38.5333 191.12 22.5333C189.84 21.3733 188.867 20.16 187.093 19.8267C180.453 18.2 174.547 20.04 167.573 19.3733C159.573 18.68 151.64 19.4133 143.667 19.3067C137.4 18.7467 131.24 19.4533 125 19.5067C106.4 18.7067 87.6534 19.8133 69 19.4533C66.2934 19.6133 62.2534 18.96 60.2534 21.1867C58.0667 23.2134 57.64 25.7467 57.7067 28.6133C57.6934 57.5067 57.6934 86.4267 57.6667 115.307C57.8134 117.947 56.9467 119.547 55.16 121.413C51.92 125.533 44.9067 125.08 41.16 121.96C38.7867 119.44 37.92 116.04 38.0134 112.627C38.0534 85.52 38.0534 58.4 38 31.2933C37.9334 24.9467 38.36 17.6 41.7334 12.0267C46.32 3.47999 55.4934 -0.97332 64.9867 -0.986654Z" fill="#001839"/>
<path d="M374.147 64.267C392.427 64.2137 410.733 64.2404 429 64.2271C443.107 64.6804 456.947 67.907 469.267 74.947C481.48 81.8404 491.733 92.7604 497.44 105.614C506.667 124.88 508.107 147.68 502.707 168.24C498.053 184.04 490.013 198.307 476.253 207.88C461.693 218.867 443 223.094 425 222.52C407.107 222.454 389.2 222.707 371.32 222.48C371.16 171.187 371.293 119.894 371.24 68.6004C371.147 66.2137 371.2 64.1604 374.147 64.267Z" fill="#001839"/>
<path d="M1159.16 80.0267C1166.35 79.9467 1173.53 79.92 1180.72 79.8667C1180.6 90.16 1180.75 100.467 1180.65 110.76C1190.65 111.067 1200.68 110.8 1210.69 110.92C1210.81 117.827 1210.76 124.733 1210.65 131.627C1200.8 131.92 1190.89 131.413 1181.05 131.84C1180.37 133.56 1180.77 136.08 1180.65 137.96C1180.81 153.52 1180.57 169.08 1180.67 184.627C1180.96 190.333 1180.85 195.947 1185.87 199.693C1192.99 204.64 1202.81 201.987 1210.71 200.813C1210.72 207.64 1210.61 214.48 1210.87 221.293C1206.69 223.253 1201.35 222.693 1196.81 223.213C1185.56 223.72 1173.15 221.24 1165.85 211.893C1161.47 205.693 1158.8 197.587 1159.08 189.96C1159.16 170.547 1159 151.133 1159.12 131.72C1152.88 131.653 1146.63 131.68 1140.39 131.707C1140.32 124.773 1140.28 117.853 1140.48 110.92C1146.67 110.933 1152.87 110.893 1159.05 110.893C1159.17 100.6 1159 90.3067 1159.16 80.0267Z" fill="#001839"/>
<path d="M393.52 86.307C398.747 86.0003 403.973 86.5203 409.213 86.0403C419.733 85.1603 430.253 85.627 440.707 87.0003C447.8 88.5336 454.76 91.547 460.787 95.5736C468.627 101.187 474.68 109.08 478.387 117.96C483.68 131.427 484.52 146.614 481.093 160.654C478.16 172.547 471.88 183.587 461.8 190.827C451.667 197.84 439.853 200.694 427.653 200.934C416.32 200.907 404.973 200.96 393.627 200.934C393.347 162.76 393.533 124.494 393.52 86.307Z" fill="#FEFEFE"/>
<path d="M218.12 108.6C219.507 120.187 207.107 130.52 196.04 126.88C191.467 125.587 188.453 122.387 186.147 118.387C174.653 117.96 163.133 118.333 151.64 118.187C147.507 118.093 143.827 118.587 140.92 121.827C129.373 133.627 117.64 145.187 106.307 157.187C100.867 153.28 95.6 151.773 88.96 151.173C92.5066 149.413 94.8666 146.64 97.6266 143.92C108.907 132.52 120.2 121.107 131.213 109.44C136.107 104.387 143.413 102.413 150.28 102.573C161.907 102.6 173.533 102.627 185.16 102.48C187.773 98.0668 190.88 94.4934 195.933 92.9067C206.333 89.4401 217.973 97.6001 218.12 108.6Z" fill="#001839"/>
<path d="M573.147 108.36C584.6 107.947 596 109.96 606.067 115.627C616.947 121.134 624.48 130.48 629.84 141.227C638.773 161.707 636.613 187.134 622.08 204.534C605.213 225.254 573.147 230.934 549.653 218.72C535.24 211.587 524.813 198.067 520.613 182.654C515.653 162.6 520.213 139.08 535.573 124.547C545.587 114.4 559.133 109.494 573.147 108.36Z" fill="#001839"/>
<path d="M739.333 118.28C745.4 122.827 751.44 129.107 753.64 136.52C747.107 139.36 741.04 143.04 734.413 145.627C730.827 138.427 724.933 132.867 717.027 130.853C702.72 126.427 686.24 131.56 677.547 143.88C666.587 159.387 668.627 184.36 683.96 196.387C695.307 205.72 712.333 206.76 724.773 199.027C729.347 196.067 732.067 191.987 735.227 187.707C741.307 190.933 747.6 193.787 753.88 196.613C749.693 207.427 740.28 215.84 729.693 220.227C716.52 226.08 700.827 226.64 687.16 222.12C675.707 218.067 665.013 210.76 658.333 200.453C642.88 177.693 645.653 144.307 665 124.653C684.347 105.44 716.96 102.92 739.333 118.28Z" fill="#001839"/>
<path d="M837.813 111.853C845.8 114.96 852.293 120.36 857.773 126.84C857.827 121.533 857.96 116.213 858 110.907C865.04 110.813 872.08 110.947 879.107 110.867C879.413 145.68 879.133 180.493 879.24 215.307C879.533 233.2 871.547 251.267 856.333 261.227C845.533 268.013 832.387 271.32 819.667 270.787C806.147 271.227 792.36 266.92 781.547 258.773C776.587 255.12 773.187 250.467 769.187 245.827C774.453 240.92 781.573 237.88 787.72 234.213C792.773 241.76 800.213 247.507 809.253 249.267C817.933 251.56 826.84 250.747 835.373 248.267C844.32 245.387 852.12 238.68 855.253 229.667C858.947 221.32 857.627 212.773 857.707 203.8C849.173 216.267 833.32 223.613 818.333 222.933C802.52 223.493 786.6 215.88 776.347 203.973C761.707 187.573 759.52 161.653 767.747 141.787C772.28 130.707 780.68 120.613 791.387 115.067C805.387 107.533 822.933 106.12 837.813 111.853Z" fill="#001839"/>
<path d="M984.32 115.987C996.107 122.907 1003.39 134.36 1007.51 147.134C1010.23 156.214 1010.19 165.267 1009.64 174.64C980.107 174.667 950.56 174.614 921.027 174.64C921.453 179.28 922.347 183.56 924.76 187.614C932.16 201.147 949.693 207.387 964.347 204.147C973.427 202.734 981.68 197.96 986.467 189.987C993.32 192.134 999.72 195.867 1006.09 199.12C1000.41 207.867 992.68 215.72 982.933 219.787C962.547 228.654 936.933 226.84 919.16 212.96C907.907 204.054 900.213 189.574 898.907 175.307C898.467 165.787 897.933 156.347 901.173 147.307C904.84 136.254 911.747 125.067 921.6 118.547C939.653 105.96 965.32 104.894 984.32 115.987Z" fill="#001839"/>
<path d="M1109.71 114.613C1118.96 120.12 1125.2 129.88 1127.53 140.28C1128.56 145.173 1129.56 150.267 1129.52 155.293C1129.4 177.68 1129.56 200.08 1129.48 222.48C1122.28 222.52 1115.09 222.52 1107.89 222.547C1107.67 200.12 1108.15 177.72 1107.37 155.307C1107.03 147.173 1103.45 137.92 1096.15 133.6C1085.08 126.787 1069.56 128.32 1059.69 136.627C1052.36 143.267 1050.23 152.413 1049.95 161.96C1049.91 182.16 1050.04 202.36 1049.91 222.56C1042.68 222.453 1035.45 222.587 1028.23 222.573C1028.27 185.387 1028.04 148.173 1028.36 110.987C1035.53 110.88 1042.71 110.827 1049.89 110.867C1050.04 116.267 1049.96 121.653 1050.05 127.053C1053.41 122.76 1056.6 118.653 1061.23 115.627C1075.47 106.067 1094.99 106.173 1109.71 114.613Z" fill="#001839"/>
<path d="M581.56 129.627C593.6 131.413 605.027 138.84 609.92 150.24C613.307 157.4 613.013 164.893 612.653 172.627C611.6 186.8 600.787 199.093 587.24 202.84C572.28 206.973 555.507 201.267 546.747 188.36C537.747 174 538.627 153.24 550.307 140.613C558.267 132.173 570.053 128 581.56 129.627Z" fill="#FEFEFE"/>
<path d="M950.28 129.24C956.8 128.96 962.92 128.814 969.027 131.414C979.133 135.334 987.467 145.88 987.427 156.96C965.373 157.027 943.307 156.974 921.24 156.974C922.533 142.147 935.6 130.147 950.28 129.24Z" fill="#FEFEFE"/>
<path d="M809.747 131C822.373 127.053 838.16 129.653 847.76 139.187C862.08 152.907 861.96 178.88 847.493 192.493C833.04 205.893 808.307 205.24 794.587 191.067C782.293 177.44 782.454 154.547 794.454 140.813C798.32 136.173 804.107 133 809.747 131Z" fill="#FEFEFE"/>
<path d="M19.7601 143.627C24.4534 144.253 27.1068 147.373 29.8668 150.867C45.5468 151.467 61.3601 150.32 77.0001 151.547C80.9734 151.707 84.9468 151.213 88.9601 151.173C95.6001 151.773 100.867 153.28 106.307 157.187C112.093 162.213 117.187 168.293 122.627 173.667C129.693 180.28 136.133 187.813 143.693 194.147C146.12 195.32 149.013 195.507 151.653 195.56C162.853 195.6 174.067 195.573 185.267 195.48C187.307 192.547 189.12 189.747 192.307 187.893C199.853 183.28 210.573 185.507 215.253 193.133C218.027 197.867 219.693 204.093 217.36 209.333C214.333 218.493 203.12 223.827 194.227 219.827C189.747 218.187 187.827 214.573 185.093 211C171.733 211 158.333 211.027 144.973 210.933C139.6 210.987 134.573 207.76 130.92 204.04C120.467 193.587 109.96 183.213 99.5734 172.707C96.8534 170.093 94.4134 167.64 90.3601 167.667C70.5601 167.52 50.6934 167.493 30.8801 167.68C29.2134 169.68 27.7201 171.64 25.5868 173.2C19.6134 177.827 10.0801 176.747 4.85343 171.427C0.440093 167.467 -0.453249 161.147 0.386751 155.533C2.16008 147.08 11.4401 141.56 19.7601 143.627Z" fill="#0D6EFA"/>
</g>
<defs>
<clipPath id="clip0_2232_24">
<rect width="1211" height="277" fill="white"/>
</clipPath>
</defs>
</svg>
